#tb 0: 1/25
0,          0,          0,        1,    38016, 0xc8981780
0,          1,          1,        1,    38016, 0xf089d880
0,          2,          2,        1,    38016, 0x5eee0731
0,          3,          3,        1,    38016, 0x79604e7c
0,          4,          4,        1,    38016, 0xb92186a9
0,          5,          5,        1,    38016, 0xe18ea8d9
0,          6,          6,        1,    38016, 0xedb599dd
0,          7,          7,        1,    38016, 0xc2665a04
0,          8,          8,        1,    38016, 0x88387c78
0,          9,          9,        1,    38016, 0x70b09638
0,         10,         10,        1,    38016, 0xb5629ba8
0,         11,         11,        1,    38016, 0xc8ee696b
0,         12,         12,        1,    38016, 0x9af12088
0,         13,         13,        1,    38016, 0x044f1510
0,         14,         14,        1,    38016, 0x04153fcc
0,         15,         15,        1,    38016, 0x6a433225
0,         16,         16,        1,    38016, 0x8fb43d81
0,         17,         17,        1,    38016, 0x708c5884
0,         18,         18,        1,    38016, 0xb2fa310d
0,         19,         19,        1,    38016, 0xa54f23bf
0,         20,         20,        1,    38016, 0x875d12a9
0,         21,         21,        1,    38016, 0xa7c2f3e5
0,         22,         22,        1,    38016, 0xba120362
0,         23,         23,        1,    38016, 0xf922ead0
0,         24,         24,        1,    38016, 0x23c38ae4
0,         25,         25,        1,    38016, 0x8e705ad0
0,         26,         26,        1,    38016, 0x60854be9
0,         27,         27,        1,    38016, 0x63163fd9
0,         28,         28,        1,    38016, 0x6d5886bd
0,         29,         29,        1,    38016, 0xd66fdaaa
0,         30,         30,        1,    38016, 0xcda78bc1
0,         31,         31,        1,    38016, 0x7e11aa47
0,         32,         32,        1,    38016, 0x4ac4ceba
0,         33,         33,        1,    38016, 0x80a45b77
0,         34,         34,        1,    38016, 0x6d1a19f9
0,         35,         35,        1,    38016, 0xd2b93d81
0,         36,         36,        1,    38016, 0x4532dc5a
0,         37,         37,        1,    38016, 0x874c3d28
0,         38,         38,        1,    38016, 0xbeb4552c
0,         39,         39,        1,    38016, 0xd85e8b6d
0,         40,         40,        1,    38016, 0x4c3a6953
0,         41,         41,        1,    38016, 0xf8615235
0,         42,         42,        1,    38016, 0x9b3e613a
0,         43,         43,        1,    38016, 0xfbba9dd5
0,         44,         44,        1,    38016, 0x435fbc73
0,         45,         45,        1,    38016, 0x15746d9d
0,         46,         46,        1,    38016, 0xfc6c2960
0,         47,         47,        1,    38016, 0x80c41d21
0,         48,         48,        1,    38016, 0xa621c891
0,         49,         49,        1,    38016, 0x24ce0e8b
0,         50,         50,        1,    38016, 0x15552d28
0,         51,         51,        1,    38016, 0xbc0b3703
0,         52,         52,        1,    38016, 0x81643dee
0,         53,         53,        1,    38016, 0x479c42ea
0,         54,         54,        1,    38016, 0x63d426db
0,         55,         55,        1,    38016, 0x5830f8e4
0,         56,         56,        1,    38016, 0xce24d921
0,         57,         57,        1,    38016, 0x0224c7b9
0,         58,         58,        1,    38016, 0x8f44bf31
0,         59,         59,        1,    38016, 0xc3d5c00f
0,         60,         60,        1,    38016, 0x13268498
0,         61,         61,        1,    38016, 0x83b99095
0,         62,         62,        1,    38016, 0xbb66a4b3
0,         63,         63,        1,    38016, 0x9b849565
0,         64,         64,        1,    38016, 0x81edbe5a
0,         65,         65,        1,    38016, 0x43781090
0,         66,         66,        1,    38016, 0x449c6974
0,         67,         67,        1,    38016, 0xbe61a0e0
0,         68,         68,        1,    38016, 0x5128c18e
0,         69,         69,        1,    38016, 0x2bf68f94
0,         70,         70,        1,    38016, 0x0fea4bbb
0,         71,         71,        1,    38016, 0x7dd650d2
0,         72,         72,        1,    38016, 0xc4332d1d
0,         73,         73,        1,    38016, 0xc7946d1c
0,         74,         74,        1,    38016, 0x6856e33f
0,         75,         75,        1,    38016, 0x567f7cc2
0,         76,         76,        1,    38016, 0x378bafed
0,         77,         77,        1,    38016, 0x3f710f7c
0,         78,         78,        1,    38016, 0x5d866a75
0,         79,         79,        1,    38016, 0xe264bdc7
0,         80,         80,        1,    38016, 0x48b2cbe9
0,         81,         81,        1,    38016, 0x0a4be700
0,         82,         82,        1,    38016, 0xcc4ed40d
0,         83,         83,        1,    38016, 0x93acaf5a
0,         84,         84,        1,    38016, 0xdd7465f2
0,         85,         85,        1,    38016, 0x4d492419
0,         86,         86,        1,    38016, 0xc2c2ca96
0,         87,         87,        1,    38016, 0x190324d8
0,         88,         88,        1,    38016, 0xd8962520
0,         89,         89,        1,    38016, 0x8d917eea
0,         90,         90,        1,    38016, 0x08ec794f
0,         91,         91,        1,    38016, 0x7ab598a6
0,         92,         92,        1,    38016, 0xaaec0ef7
0,         93,         93,        1,    38016, 0x7f6ffbe3
0,         94,         94,        1,    38016, 0x116d37cb
0,         95,         95,        1,    38016, 0x7b3a59fd
0,         96,         96,        1,    38016, 0xed5361cb
0,         97,         97,        1,    38016, 0x9c558a98
0,         98,         98,        1,    38016, 0x292e84ea
0,         99,         99,        1,    38016, 0x0d35bf44
0,        100,        100,        1,    38016, 0xaad7bedd
0,        101,        101,        1,    38016, 0xa6111b87
0,        102,        102,        1,    38016, 0x3c8bfc27
0,        103,        103,        1,    38016, 0x65ce6703
0,        104,        104,        1,    38016, 0x60ece2ec
0,        105,        105,        1,    38016, 0x8abbb25f
0,        106,        106,        1,    38016, 0x41108b27
0,        107,        107,        1,    38016, 0xac26284e
0,        108,        108,        1,    38016, 0x5f4c0db0
0,        109,        109,        1,    38016, 0xcccbee91
0,        110,        110,        1,    38016, 0x34238dc1
0,        111,        111,        1,    38016, 0x7479b326
0,        112,        112,        1,    38016, 0xaaf8a957
0,        113,        113,        1,    38016, 0xc49b55cb
0,        114,        114,        1,    38016, 0x338b129f
0,        115,        115,        1,    38016, 0xf0ed3328
0,        116,        116,        1,    38016, 0x39f8dcb3
0,        117,        117,        1,    38016, 0x7aecb808
0,        118,        118,        1,    38016, 0x35e8827a
0,        119,        119,        1,    38016, 0x16ac8b9d
0,        120,        120,        1,    38016, 0x3abdcb78
0,        121,        121,        1,    38016, 0xdfbfba7f
0,        122,        122,        1,    38016, 0x692a964e
0,        123,        123,        1,    38016, 0x11a5ebdb
0,        124,        124,        1,    38016, 0x46bc156d
0,        125,        125,        1,    38016, 0x1b153144
0,        126,        126,        1,    38016, 0xdd23349a
0,        127,        127,        1,    38016, 0xbad02161
0,        128,        128,        1,    38016, 0xc5030168
0,        129,        129,        1,    38016, 0x3e4ff28d
0,        130,        130,        1,    38016, 0x17faffe2
0,        131,        131,        1,    38016, 0xba04122f
0,        132,        132,        1,    38016, 0x8a8e0e1e
0,        133,        133,        1,    38016, 0xe5d6fc7d
0,        134,        134,        1,    38016, 0x22e3e630
0,        135,        135,        1,    38016, 0x7eb1a935
0,        136,        136,        1,    38016, 0xde46bead
0,        137,        137,        1,    38016, 0x34abc542
0,        138,        138,        1,    38016, 0x10ceaea3
0,        139,        139,        1,    38016, 0xb86fa676
0,        140,        140,        1,    38016, 0xbd9d9d3c
0,        141,        141,        1,    38016, 0x355fb37f
0,        142,        142,        1,    38016, 0xfb6fd3b0
0,        143,        143,        1,    38016, 0x3062edf4
0,        144,        144,        1,    38016, 0xf6940b60
0,        145,        145,        1,    38016, 0x78bd2f4e
0,        146,        146,        1,    38016, 0x51fc444f
0,        147,        147,        1,    38016, 0x118957cc
0,        148,        148,        1,    38016, 0x53777a50
0,        149,        149,        1,    38016, 0xeeaa9761
